<?xml version="1.0" encoding="utf-8"?>
<!-- Generator: Adobe Illustrator 21.0.0, SVG Export Plug-In . SVG Version: 6.00 Build 0)  -->
<svg version="1.1" id="Layer_1" xmlns="http://www.w3.org/2000/svg" xmlns:xlink="http://www.w3.org/1999/xlink" x="0px" y="0px"
	 viewBox="0 0 1366 768" style="enable-background:new 0 0 1366 768;" xml:space="preserve">
<style type="text/css">
	.st0{fill:none;stroke:#231F20;stroke-width:2;stroke-linecap:round;stroke-linejoin:round;stroke-miterlimit:10;}
</style>
<g>
	<circle class="st0" cx="765" cy="389.1" r="30.6"/>
	<path class="st0" d="M759.4,419.2c0,0,16.7,53.4,33.1,66.9c2.4,1.9,5.2,3.2,8.3,3.7l26.4,3.8c5.5,0.8,10.3,4.3,12.8,9.3l7.9,16.3
		c8,16.4,31.8,3.9,24.3-11.7L858.6,479c-2.2-4.5-6.2-7.8-11-9l-18.7-4.8c-4.9-1.3-9-4.7-11.1-9.3l-8-17.5
		c-2.7-5.9-1.8-12.7,2.3-17.7l28.4-34.6c11.2-13.6-9.6-29.8-20.9-17.1l-27.6,33.7"/>
	<path class="st0" d="M821.6,460.9l43-19.3c2.4-1.1,5-1.6,7.6-1.5l17.4,1.1c17.6,0.8,16.8,28-1.5,26.7l-9.4-1.3
		c-2.5-0.2-5.1,0.2-7.4,1.2l-15.9,6.5"/>
	<path class="st0" d="M823.3,406.9c0,0,14.9-2.8,30.6-5.9c15.7-3.1,21.1,20.9,4.8,24.2l-50,10"/>
	<polyline class="st0" points="653.9,408.2 684.2,408.2 684.2,442.7 	"/>
	<polyline class="st0" points="684.2,442.7 714.4,442.7 714.4,477.3 	"/>
	<polyline class="st0" points="714.4,477.3 744.6,477.3 744.6,511.9 	"/>
	<polyline class="st0" points="744.6,511.9 774.9,511.9 774.9,546.4 	"/>
	<polyline class="st0" points="774.9,546.4 805.1,546.4 805.1,581 	"/>
</g>
</svg>
